<svg width="20" height="20" viewBox="0 0 20 20" fill="none" xmlns="http://www.w3.org/2000/svg">
<rect width="20" height="20" rx="6" fill="#F5F5F5"/>
<path d="M8.60837 4.77381C8.69324 4.56441 8.64458 4.32454 8.48481 4.16477C8.32504 4.005 8.08517 3.95633 7.87577 4.04121C5.60397 4.96201 4 7.19024 4 9.79444C4 13.2217 6.77833 16 10.2056 16C12.8098 16 15.038 14.396 15.9588 12.1242C16.0437 11.9148 15.995 11.675 15.8352 11.5152C15.6755 11.3554 15.4356 11.3068 15.2262 11.3916C14.638 11.63 13.9946 11.7616 13.319 11.7616C11.5755 11.7616 10.3285 11.2974 9.51554 10.4845C8.70257 9.67149 8.23841 8.42451 8.23841 6.68102C8.23841 6.00543 8.36998 5.36196 8.60837 4.77381Z" fill="#CCCCCC"/>
</svg>
