<svg width="20" height="20" viewBox="0 0 20 20" fill="none" xmlns="http://www.w3.org/2000/svg">
<rect width="20" height="20" rx="6" fill="#F5F5F5"/>
<path d="M6.75 3C7.16421 3 7.5 3.33579 7.5 3.75V6H12.25C13.2165 6 14 6.7835 14 7.75V12.5H16.25C16.6642 12.5 17 12.8358 17 13.25C17 13.6642 16.6642 14 16.25 14H14V16.25C14 16.6642 13.6642 17 13.25 17C12.8358 17 12.5 16.6642 12.5 16.25V14H7.75C6.7835 14 6 13.2165 6 12.25V7.5H3.75C3.33579 7.5 3 7.16421 3 6.75C3 6.33579 3.33579 6 3.75 6H6V3.75C6 3.33579 6.33579 3 6.75 3ZM7.5 7.5V12.25C7.5 12.3881 7.61193 12.5 7.75 12.5H12.5V7.75C12.5 7.61193 12.3881 7.5 12.25 7.5H7.5Z" fill="#CCCCCC"/>
</svg>
