<svg width="20" height="20" viewBox="0 0 20 20" fill="none" xmlns="http://www.w3.org/2000/svg">
<rect width="20" height="20" rx="6" fill="#383838"/>
<path d="M11.9654 13.0261C11.1358 13.6382 10.1101 14 9 14C6.23858 14 4 11.7614 4 9C4 6.23858 6.23858 4 9 4C11.7614 4 14 6.23858 14 9C14 10.1101 13.6382 11.1358 13.0261 11.9654L15.7803 14.7197C16.0732 15.0126 16.0732 15.4874 15.7803 15.7803C15.4874 16.0732 15.0126 16.0732 14.7197 15.7803L11.9654 13.0261ZM12.5 9C12.5 7.067 10.933 5.5 9 5.5C7.067 5.5 5.5 7.067 5.5 9C5.5 10.933 7.067 12.5 9 12.5C10.933 12.5 12.5 10.933 12.5 9Z" fill="#808080"/>
</svg>
