<svg width="20" height="20" viewBox="0 0 20 20" fill="none" xmlns="http://www.w3.org/2000/svg">
<rect width="20" height="20" rx="6" fill="#383838"/>
<path d="M16.9886 5.88034C17.0606 5.47243 16.7883 5.0834 16.3803 5.01142C15.9724 4.93943 15.5834 5.21175 15.5114 5.61966L14.0114 14.1197C13.9394 14.5276 14.2118 14.9166 14.6197 14.9886C15.0276 15.0606 15.4166 14.7883 15.4886 14.3803L16.9886 5.88034Z" fill="#808080"/>
<path d="M7.5 7.25V8H8.5V7.25C8.5 6.00736 9.50736 5 10.75 5C11.9926 5 13 6.00736 13 7.25C13 8.49264 11.9926 9.5 10.75 9.5H10V10.5H10.75C11.9926 10.5 13 11.5074 13 12.75C13 13.9926 11.9926 15 10.75 15C9.50736 15 8.5 13.9926 8.5 12.75V12H7.5V12.75C7.5 13.9926 6.49264 15 5.25 15C4.00736 15 3 13.9926 3 12.75C3 11.5074 4.00736 10.5 5.25 10.5H6V9.5H5.25C4.00736 9.5 3 8.49264 3 7.25C3 6.00736 4.00736 5 5.25 5C6.49264 5 7.5 6.00736 7.5 7.25ZM4.5 7.25C4.5 7.66421 4.83579 8 5.25 8H6V7.25C6 6.83579 5.66421 6.5 5.25 6.5C4.83579 6.5 4.5 6.83579 4.5 7.25ZM7.5 10.5H8.5V9.5H7.5V10.5ZM10.75 8C11.1642 8 11.5 7.66421 11.5 7.25C11.5 6.83579 11.1642 6.5 10.75 6.5C10.3358 6.5 10 6.83579 10 7.25V8H10.75ZM10 12.75C10 13.1642 10.3358 13.5 10.75 13.5C11.1642 13.5 11.5 13.1642 11.5 12.75C11.5 12.3358 11.1642 12 10.75 12H10V12.75ZM5.25 12C4.83579 12 4.5 12.3358 4.5 12.75C4.5 13.1642 4.83579 13.5 5.25 13.5C5.66421 13.5 6 13.1642 6 12.75V12H5.25Z" fill="#808080"/>
</svg>
