<svg width="20" height="20" viewBox="0 0 20 20" fill="none" xmlns="http://www.w3.org/2000/svg">
<rect width="20" height="20" rx="6" fill="#383838"/>
<path d="M5.49998 9.24999L5.49994 6.56069L8.21966 9.28033C8.51255 9.57322 8.98743 9.57322 9.28032 9.28033C9.57321 8.98743 9.5732 8.51256 9.28031 8.21967L6.5606 5.50002L9.24999 5.5C9.6642 5.5 9.99998 5.16421 9.99998 4.75C9.99998 4.33578 9.66419 4 9.24998 4L5.99993 4.00002C5.29986 4.00002 4.94983 4.00002 4.68244 4.13627C4.44723 4.25611 4.25601 4.44734 4.13617 4.68254C3.99993 4.94994 3.99993 5.29997 3.99994 6.00004L3.99998 9.25001C3.99999 9.66422 4.33578 10 4.74999 10C5.1642 10 5.49999 9.66421 5.49998 9.24999Z" fill="#808080"/>
<path d="M14.5 10.75L14.5 13.4393L11.7803 10.7197C11.4874 10.4268 11.0125 10.4268 10.7196 10.7197C10.4267 11.0126 10.4268 11.4874 10.7196 11.7803L13.4394 14.5L10.75 14.5C10.3358 14.5 9.99997 14.8358 9.99998 15.25C9.99998 15.6642 10.3358 16 10.75 16L14 16C14.7001 16 15.0501 16 15.3175 15.8637C15.5527 15.7439 15.7439 15.5527 15.8638 15.3175C16 15.0501 16 14.7 16 14L16 10.75C16 10.3358 15.6642 10 15.25 10C14.8358 10 14.5 10.3358 14.5 10.75Z" fill="#808080"/>
</svg>
